<svg version="1.1" id="Layer_1" xmlns="http://www.w3.org/2000/svg" xmlns:xlink="http://www.w3.org/1999/xlink" x="0px" y="0px"
	 width="100%" viewBox="0 0 1024 1024" enable-background="new 0 0 1024 1024" xml:space="preserve">
<path fill="#000000" opacity="1.000000" stroke="none" 
	d="
M544.083862,302.040253 
	C534.658752,317.284027 525.432129,332.225586 516.205505,347.167145 
	C516.500977,347.678345 516.796509,348.189545 517.091980,348.700745 
	C537.903259,348.700745 558.714539,348.700745 579.688354,348.700745 
	C578.835510,353.258118 440.308594,550.418884 436.310181,553.488770 
	C435.585144,553.090393 435.557861,552.432312 435.828827,551.806641 
	C453.235199,511.614685 470.662445,471.431793 488.068542,431.239716 
	C492.700592,420.544006 497.289551,409.829498 501.863525,399.108826 
	C504.401764,393.159607 503.892090,392.396973 497.150574,392.380463 
	C480.486328,392.339691 463.821930,392.368103 447.157593,392.362213 
	C445.188385,392.361511 443.177704,392.643951 441.266174,391.724487 
	C440.707855,388.903961 442.442230,386.851685 443.448853,384.669159 
	C467.097412,333.394226 490.791138,282.140137 514.508057,230.896744 
	C519.660278,219.764740 519.676758,219.859299 530.575928,226.045944 
	C543.915833,233.618073 557.546387,240.634857 571.924683,246.042053 
	C576.174072,247.640121 576.813232,249.482666 574.367249,253.351822 
	C564.218872,269.404633 554.291016,285.596924 544.083862,302.040253 
z"/>
<path fill="#000000" opacity="1.000000" stroke="none" 
	d="
M536.614380,559.697876 
	C521.701050,567.804565 521.701965,567.802795 506.970276,560.225342 
	C493.006348,553.042786 479.961700,544.401978 467.199921,535.296143 
	C464.327667,533.246704 463.703156,531.366638 466.029999,528.358154 
	C469.593597,523.750549 472.910065,518.938416 476.108154,514.066528 
	C478.028778,511.140717 479.787292,510.907288 482.583954,513.005005 
	C493.666229,521.317505 505.514923,528.427063 517.688293,535.025513 
	C520.086731,536.325500 522.039124,536.830688 524.618164,535.404724 
	C558.682312,516.571106 588.319397,492.854980 608.765259,459.058563 
	C622.466064,436.411621 630.810974,411.872345 634.761780,385.692291 
	C638.108765,363.513123 638.302124,341.259521 637.636597,318.944336 
	C637.443176,312.456635 636.849548,305.980133 636.692261,299.492340 
	C636.612244,296.193451 634.576538,295.214447 632.006958,294.655426 
	C613.557373,290.641754 595.951416,284.019562 578.343506,277.392456 
	C571.905640,274.969421 571.769348,274.705780 575.438354,268.747803 
	C578.058594,264.492828 580.961670,260.394531 583.320374,256.001770 
	C585.016235,252.843491 586.741089,252.344177 590.090759,253.617538 
	C608.150208,260.482727 626.470947,266.542328 645.509827,270.148560 
	C648.284851,270.674194 651.122131,271.606262 653.865051,271.414154 
	C659.595886,271.012848 661.444702,273.236572 661.829224,278.965881 
	C663.691406,306.711548 665.394165,334.427490 663.583374,362.257538 
	C662.261780,382.569946 659.271118,402.550232 653.736755,422.165558 
	C639.541687,472.476898 609.001709,510.787018 567.044189,540.786743 
	C557.407288,547.677063 547.345886,553.874207 536.614380,559.697876 
z"/>
<path fill="#000000" opacity="1.000000" stroke="none" 
	d="
M369.678528,271.621033 
	C389.773529,268.841980 409.071075,264.605286 427.825562,258.062408 
	C454.556885,248.736725 479.442230,235.711411 503.211853,220.445541 
	C505.125702,219.216400 506.805908,217.458191 509.310455,217.345474 
	C510.444824,218.828995 509.243622,219.925522 508.742493,221.027100 
	C503.638550,232.247131 498.421051,243.415894 493.375549,254.661911 
	C492.079010,257.551788 490.180359,259.564575 487.433411,261.094788 
	C458.517487,277.202881 427.695953,288.016846 395.258453,294.319275 
	C388.250000,295.681000 388.272217,295.909454 388.702301,303.106384 
	C389.674927,319.380737 391.186127,335.589844 393.355774,351.744324 
	C399.413208,396.845642 412.711975,439.080841 442.145813,474.910492 
	C445.103333,478.510681 448.354095,481.869476 451.452423,485.354797 
	C452.451996,486.479187 453.646973,487.674652 452.953430,489.321167 
	C449.609222,497.260864 446.178284,505.164062 442.868591,512.869507 
	C439.607666,512.989990 438.474670,510.880890 437.011902,509.436340 
	C402.987122,475.834167 382.946899,434.733185 372.804657,388.504395 
	C367.063385,362.335571 363.716949,335.825012 362.441864,309.014374 
	C361.966583,299.020844 361.810120,289.047180 361.698761,279.060883 
	C361.617737,271.795227 361.703674,271.794281 369.678528,271.621033 
z"/>
<path fill="#000000" opacity="1.000000" stroke="none" 
	d="
M247.671432,650.180908 
	C249.585159,624.007690 268.456177,604.560303 294.194458,601.602173 
	C316.016571,599.094055 334.452576,605.066345 347.533813,623.431335 
	C366.682648,650.314697 356.816925,698.042480 311.924011,705.179565 
	C286.427399,709.233032 265.057587,698.963989 253.792053,678.541626 
	C249.009567,669.871887 247.208282,660.497498 247.671432,650.180908 
M275.482483,667.928833 
	C281.986633,680.051575 294.240997,686.529114 306.337524,684.238403 
	C323.428436,681.002014 332.667328,668.724548 331.802002,650.398926 
	C330.940521,632.154846 313.838501,619.027344 295.972107,622.895813 
	C276.357635,627.142700 266.755768,647.609497 275.482483,667.928833 
z"/>
<path fill="#000000" opacity="1.000000" stroke="none" 
	d="
M819.116333,670.000000 
	C819.159668,648.525269 819.231384,627.550476 819.214661,606.575745 
	C819.212463,603.826294 820.233582,602.647278 823.013611,602.652771 
	C845.509094,602.697449 868.004700,602.700134 890.500305,602.667542 
	C893.271484,602.663513 894.388794,603.898926 894.334778,606.603699 
	C894.261658,610.267883 894.127747,613.951599 894.409912,617.596680 
	C894.739319,621.851929 892.866821,623.099976 888.866516,623.040771 
	C876.371216,622.856018 863.872253,622.901733 851.374756,622.889343 
	C843.292114,622.881348 843.204651,622.906860 843.293823,630.761841 
	C843.449280,644.451294 841.234375,642.483948 855.195496,642.619995 
	C864.692871,642.712646 874.193054,642.739624 883.689209,642.602783 
	C887.068848,642.554138 888.604004,643.638306 888.388367,647.192749 
	C888.176880,650.678955 888.209778,654.196106 888.396301,657.685730 
	C888.585571,661.228271 886.965759,662.338379 883.629517,662.309326 
	C872.132629,662.208984 860.631897,662.409302 849.137756,662.206360 
	C844.969421,662.132812 842.741516,663.210938 843.271912,667.782715 
	C843.859070,672.842896 841.013794,679.280945 844.557922,682.664185 
	C847.832947,685.790588 854.115295,683.601990 859.063660,683.670227 
	C869.892822,683.819580 880.727295,683.817627 891.555969,683.647156 
	C895.277405,683.588501 896.638062,684.969910 896.425842,688.622925 
	C896.203918,692.443054 896.282043,696.287231 896.379517,700.117126 
	C896.453918,703.039124 895.303284,704.340576 892.276306,704.331299 
	C869.280884,704.260620 846.285156,704.233704 823.289734,704.291382 
	C819.359253,704.301270 819.112061,701.837830 819.110352,698.994934 
	C819.104675,689.496643 819.113831,679.998291 819.116333,670.000000 
z"/>
<path fill="#000000" opacity="1.000000" stroke="none" 
	d="
M626.140930,666.232666 
	C634.853821,646.360901 643.469238,626.863159 651.898560,607.285156 
	C653.346985,603.920959 655.206726,602.231750 658.995361,602.593872 
	C661.967957,602.877930 665.069214,603.107727 667.972046,602.581848 
	C676.039307,601.120178 679.542236,604.992249 682.588501,612.100037 
	C694.985596,641.025879 708.046814,669.666992 720.837036,698.424683 
	C721.554749,700.038452 722.853882,701.586731 721.636597,704.238098 
	C714.496826,704.238098 707.050354,704.284363 699.604980,704.211914 
	C697.150146,704.187988 696.395142,702.125366 695.623840,700.271179 
	C693.832825,695.965820 692.034302,691.662231 690.338379,687.319092 
	C689.236145,684.496277 687.428162,683.223816 684.270935,683.252563 
	C672.109009,683.363525 659.944519,683.336914 647.782532,683.212646 
	C644.611877,683.180176 642.858337,684.568542 641.762207,687.373108 
	C640.004700,691.869934 638.128174,696.320496 636.279297,700.781189 
	C635.570435,702.491577 634.860168,704.260315 632.556396,704.263489 
	C625.432617,704.273132 618.308777,704.266968 610.019714,704.266968 
	C614.785400,690.795776 620.847839,678.872742 626.140930,666.232666 
M669.385376,663.646179 
	C672.565735,663.248962 675.988953,664.630249 679.465149,662.172913 
	C675.655579,651.486084 671.402649,641.036499 666.775757,630.740540 
	C666.291748,630.739136 665.807800,630.737671 665.323792,630.736267 
	C661.002014,641.175232 656.680237,651.614136 652.128174,662.609314 
	C657.934814,664.500061 663.248291,663.278870 669.385376,663.646179 
z"/>
<path fill="#000000" opacity="1.000000" stroke="none" 
	d="
M572.764832,621.327637 
	C568.306824,621.207092 564.292847,621.111816 560.449280,622.455872 
	C556.290771,623.909973 552.760193,626.340088 552.532837,631.087463 
	C552.318909,635.554565 555.688354,637.806702 559.399841,639.335632 
	C565.582275,641.882629 572.203735,642.889221 578.604980,644.671692 
	C582.607666,645.786194 586.637878,646.861450 590.534424,648.286072 
	C601.709045,652.371704 608.655579,659.988464 609.219055,672.268738 
	C609.791870,684.754700 604.637207,694.876343 593.468445,700.148926 
	C571.413086,710.561035 549.785950,707.321106 529.028564,695.586487 
	C527.119324,694.507141 525.865540,692.932556 526.888977,690.645447 
	C529.251343,685.366028 531.739197,680.142822 534.068237,675.129150 
	C537.068420,674.989990 538.586792,676.754272 540.421265,677.802979 
	C551.284180,684.012878 562.713379,687.370911 575.297485,684.596985 
	C577.210815,684.175293 579.164001,683.434387 580.808716,682.386108 
	C586.178467,678.963440 586.220093,672.850159 580.924988,669.282898 
	C576.700256,666.436646 571.773926,665.401733 566.891785,664.327454 
	C559.574402,662.717346 552.299866,660.954590 545.379395,658.004639 
	C536.017639,654.013916 529.642822,647.711792 528.600525,636.975708 
	C527.416504,624.779480 531.423645,614.931396 541.713684,608.180237 
	C552.039673,601.405579 563.783875,600.073486 575.759155,600.996582 
	C584.578552,601.676453 593.134949,603.745605 601.138428,607.815613 
	C604.374695,609.461365 605.649231,611.215698 603.850098,614.832336 
	C601.571655,619.412537 599.734070,624.212097 597.492188,629.413940 
	C589.473022,625.491943 581.888000,621.654602 572.764832,621.327637 
z"/>
<path fill="#000000" opacity="1.000000" stroke="none" 
	d="
M190.416962,664.627197 
	C191.398361,666.911621 192.248856,668.849243 193.353989,671.366943 
	C197.126022,665.788757 198.966019,660.088684 201.295380,654.652466 
	C208.116425,638.733887 214.849915,622.776917 221.467484,606.772888 
	C222.636780,603.945068 224.068298,602.512085 227.313599,602.613953 
	C233.921127,602.821289 240.539734,602.675964 246.870193,602.675964 
	C247.913147,605.385986 246.625107,606.946716 245.933563,608.566467 
	C233.316360,638.119202 220.550079,667.609131 208.099899,697.231812 
	C205.946915,702.354370 203.404388,704.600281 197.468338,704.437683 
	C181.300735,703.994568 181.376923,704.280151 175.078278,689.393555 
	C163.788666,662.711060 152.383347,636.077515 141.035187,609.419800 
	C140.268326,607.618347 139.575241,605.785461 138.581314,603.300964 
	C144.694946,602.119507 150.290436,602.723389 155.812790,602.724304 
	C165.911148,602.726013 163.905167,601.242126 167.944885,610.819519 
	C175.450912,628.614868 182.845215,646.457458 190.416962,664.627197 
z"/>
<path fill="#000000" opacity="1.000000" stroke="none" 
	d="
M592.639160,355.342957 
	C592.331787,352.901215 591.753235,350.917114 591.810181,348.951385 
	C591.997559,342.484619 590.937500,337.568817 583.987671,334.115662 
	C576.773193,330.531006 574.261414,320.340057 576.753845,312.592560 
	C579.649292,303.591980 586.422119,298.641022 595.810303,298.662079 
	C604.890930,298.682495 611.901550,303.750031 614.622192,312.260071 
	C617.275085,320.558136 614.533691,329.415527 607.385925,334.375763 
	C605.004822,336.028168 604.083435,337.809601 604.303955,340.579926 
	C605.371460,353.997437 606.394348,367.418732 607.358704,380.844025 
	C607.579163,383.913269 610.175415,384.263336 612.104797,385.350555 
	C620.172302,389.896637 623.219849,396.881073 622.280701,405.878326 
	C621.542480,412.951538 615.898071,419.597748 608.811401,421.715851 
	C605.372986,422.743591 601.794312,422.817322 598.429504,422.017883 
	C595.389038,421.295441 593.422180,421.937744 591.426270,424.195831 
	C577.417053,440.045990 563.384949,455.876923 549.216431,471.584412 
	C546.673950,474.403137 547.741211,477.042969 548.378906,479.942963 
	C550.213867,488.287750 547.305969,496.242859 540.886292,500.675079 
	C533.880432,505.512054 524.991760,505.656677 517.843628,501.049957 
	C509.871765,495.912476 507.015625,486.274689 510.669922,476.842651 
	C513.857727,468.614655 523.355530,463.187683 532.091187,464.999390 
	C535.011169,465.604950 537.013855,465.477692 539.124084,463.085846 
	C553.007935,447.348511 566.987854,431.695068 581.047241,416.114258 
	C583.377686,413.531647 583.942078,411.264709 583.198120,407.672699 
	C581.403320,399.006348 583.813049,391.403259 591.640442,386.418335 
	C594.384705,384.670685 594.968811,382.521240 594.530151,379.670044 
	C593.313843,371.762970 592.800598,363.800476 592.639160,355.342957 
M610.345581,400.310852 
	C609.556580,398.405731 608.269531,396.951874 606.511353,395.859650 
	C602.949280,393.646790 599.760864,394.516815 597.049866,397.240784 
	C594.518372,399.784363 593.410400,402.799744 595.519653,406.247589 
	C597.542603,409.554321 600.481628,411.446930 604.295959,410.407013 
	C608.839966,409.168121 611.174255,405.970154 610.345581,400.310852 
M602.678528,322.041077 
	C604.501709,318.464142 603.950928,315.169220 601.092285,312.482452 
	C598.734985,310.266907 595.859009,309.695679 592.767456,311.080902 
	C589.586121,312.506348 587.555420,315.057404 587.570251,318.409363 
	C587.586060,321.988098 589.764099,324.604065 593.213318,325.911957 
	C597.138123,327.400269 599.953552,325.674133 602.678528,322.041077 
M528.636414,492.563202 
	C530.007568,492.648743 531.250916,492.256439 532.423645,491.572845 
	C535.786438,489.612579 537.493286,486.760681 536.620911,482.863770 
	C535.747681,478.963806 532.787598,476.983307 529.110962,476.650299 
	C525.409424,476.315033 522.753906,478.501556 521.574646,481.943298 
	C520.300415,485.662140 521.534973,488.807831 524.775757,491.038177 
	C525.711487,491.682098 526.858948,492.018433 528.636414,492.563202 
z"/>
<path fill="#000000" opacity="1.000000" stroke="none" 
	d="
M730.924194,643.000000 
	C730.918762,631.169617 731.056763,619.836487 730.833679,608.510376 
	C730.751160,604.323059 731.845581,602.529297 736.399292,602.569519 
	C757.892151,602.759583 779.388184,602.749146 800.881653,602.606079 
	C805.009399,602.578613 806.450256,603.966064 806.332031,608.082336 
	C805.834778,625.400269 809.040161,622.843628 791.709961,623.006470 
	C781.380310,623.103516 771.047119,623.115479 760.719055,622.947510 
	C756.651917,622.881348 754.992310,624.350830 755.251587,628.502258 
	C755.521118,632.817566 755.548401,637.179932 755.241394,641.490356 
	C754.933716,645.809753 756.812256,646.878052 760.790344,646.809509 
	C771.950806,646.617126 783.119507,646.887756 794.279297,646.675415 
	C798.663757,646.592041 800.467834,647.764832 800.428345,652.560120 
	C800.306396,667.385986 800.495239,667.384399 785.813904,667.369446 
	C777.482727,667.360962 769.147400,667.518921 760.822083,667.297180 
	C756.768250,667.189270 755.125244,668.494629 755.237732,672.714478 
	C755.468506,681.372681 755.096985,690.048401 755.387329,698.703003 
	C755.537720,703.187317 753.861633,704.621399 749.573853,704.356384 
	C745.092468,704.079346 740.569031,704.108459 736.084351,704.362854 
	C731.589905,704.617798 730.871521,702.215576 730.889648,698.485901 
	C730.978577,680.157654 730.926636,661.828674 730.924194,643.000000 
z"/>
<path fill="#000000" opacity="1.000000" stroke="none" 
	d="
M467.048157,668.000000 
	C467.057892,655.013184 467.078278,642.526367 467.071747,630.039551 
	C467.068268,623.386230 466.909821,623.244080 460.470428,623.234375 
	C453.977295,623.224670 447.481567,623.102478 440.992096,623.251892 
	C437.347717,623.335754 435.814453,621.869995 435.961670,618.241333 
	C436.116791,614.417664 436.103851,610.582886 436.028442,606.755554 
	C435.969971,603.785645 437.268951,602.637695 440.233307,602.644165 
	C466.372314,602.701782 492.511597,602.711426 518.650513,602.635559 
	C521.761230,602.626526 522.715820,603.795471 522.517944,606.801025 
	C522.266846,610.614929 522.250916,614.463806 522.445312,618.281799 
	C522.629883,621.908264 521.300842,623.396301 517.572693,623.293213 
	C510.918427,623.109375 504.243896,623.494995 497.599182,623.184631 
	C492.876892,622.964050 491.205048,624.488159 491.250702,629.383850 
	C491.464874,652.357666 491.245544,675.335327 491.421112,698.309814 
	C491.455261,702.776672 490.241364,704.726074 485.529449,704.356873 
	C481.226990,704.019775 476.859802,704.038147 472.553528,704.348816 
	C467.989960,704.678040 466.865326,702.659790 466.961121,698.466797 
	C467.189178,688.482422 467.042755,678.489502 467.048157,668.000000 
z"/>
<path fill="#000000" opacity="1.000000" stroke="none" 
	d="
M395.333618,643.000122 
	C395.336670,655.166626 395.466919,666.835327 395.271332,678.498535 
	C395.205109,682.446045 396.579956,683.769287 400.479706,683.675476 
	C412.636658,683.382996 424.801300,683.873840 436.962067,683.140991 
	C444.145874,682.708130 444.323914,683.091125 444.330841,690.042847 
	C444.345032,704.261963 444.345062,704.278687 430.291687,704.286316 
	C412.458588,704.296021 394.624054,704.150879 376.793396,704.355347 
	C372.361633,704.406128 370.960968,702.842590 371.013641,698.581360 
	C371.283356,676.760254 371.385468,654.937012 371.510529,633.114258 
	C371.560150,624.456604 371.725586,615.791138 371.419586,607.143982 
	C371.288971,603.452271 372.587280,602.490356 375.960510,602.618835 
	C380.786530,602.802551 385.632660,602.819153 390.455933,602.597412 
	C394.135101,602.428223 395.446686,603.814575 395.396088,607.501160 
	C395.235931,619.165527 395.334717,630.833496 395.333618,643.000122 
z"/>
<path fill="#000000" opacity="1.000000" stroke="none" 
	d="
M684.567505,763.592896 
	C688.326782,754.295837 692.011658,745.376465 695.522278,736.389099 
	C696.498657,733.889404 697.888428,732.451660 700.656067,732.689392 
	C703.324585,732.918640 706.502502,731.697449 707.979126,735.310974 
	C713.202026,748.092224 718.445984,760.864929 723.646790,773.655212 
	C723.877197,774.221863 723.761536,774.929260 723.805054,775.542542 
	C716.108948,777.552185 714.777100,777.069702 711.703613,770.588013 
	C710.622070,768.307251 709.092896,767.311218 706.650208,767.379700 
	C704.488159,767.440369 702.300659,767.573975 700.163086,767.332764 
	C695.564636,766.814087 692.366089,768.136841 691.296326,773.055237 
	C690.759216,775.524536 689.079468,776.447815 686.529297,776.426636 
	C676.042725,776.339600 665.554382,776.319031 655.068176,776.423279 
	C651.887146,776.454895 650.616394,775.286682 650.647827,772.048645 
	C650.760925,760.397156 650.773254,748.743164 650.656982,737.091736 
	C650.620483,733.432617 652.440063,732.633850 655.620544,732.617371 
	C658.873230,732.600586 661.138306,733.090454 661.063782,737.130249 
	C660.922668,744.785034 661.024475,752.444214 661.016663,760.101562 
	C661.009827,766.825317 661.144836,766.963318 668.068787,766.974548 
	C670.399231,766.978333 672.731934,766.908752 675.059570,766.989136 
	C677.890564,767.086853 680.824341,767.153320 680.491455,772.810791 
	C682.281982,768.777344 683.354553,766.361084 684.567505,763.592896 
M705.123535,753.318848 
	C704.227417,751.652588 704.225037,749.352295 701.662292,748.581177 
	C699.052063,751.093445 698.455750,754.418091 697.595032,757.915771 
	C700.629395,758.718140 703.305908,759.040283 705.924072,758.102966 
	C706.509277,756.427246 705.603149,755.260803 705.123535,753.318848 
z"/>
<path fill="#000000" opacity="1.000000" stroke="none" 
	d="
M390.706665,768.199097 
	C388.772217,763.115479 388.222809,757.923645 385.349976,753.115723 
	C382.014954,755.901123 382.129242,759.644348 380.923401,762.740356 
	C379.961304,765.210571 379.310120,767.803589 378.552490,770.351440 
	C376.748352,776.418884 375.174500,777.359985 368.879028,776.376709 
	C367.200745,776.114563 366.110535,775.422119 365.626007,773.789001 
	C361.753143,760.735596 357.871490,747.684937 354.019470,734.625427 
	C353.942230,734.363525 354.190765,734.005493 354.290283,733.693237 
	C361.587006,731.175964 363.293640,732.110535 365.525208,738.947205 
	C367.625854,745.382751 368.798248,752.136658 372.149658,759.093933 
	C375.395782,751.626221 376.829590,744.366272 379.020142,737.372192 
	C380.062592,734.043762 381.730743,732.527771 385.415039,732.548401 
	C388.947845,732.568176 390.481659,734.022034 391.278168,737.227661 
	C392.518677,742.220276 393.925781,747.178467 395.478973,752.082642 
	C396.039673,753.853027 396.023346,756.148743 398.926025,757.244873 
	C401.542450,751.336670 403.045074,745.104797 404.774048,738.968079 
	C406.703888,732.118530 408.297241,731.264771 416.153168,733.801331 
	C414.220062,740.415039 412.277191,747.057800 410.337036,753.701477 
	C408.567505,759.760864 406.607422,765.773682 405.105865,771.898804 
	C404.209564,775.555115 402.251862,776.542297 398.716217,776.474426 
	C395.229004,776.407349 392.410187,776.082336 391.732819,771.950012 
	C391.545959,770.809875 391.118500,769.709106 390.706665,768.199097 
z"/>
<path fill="#000000" opacity="1.000000" stroke="none" 
	d="
M764.341309,744.023438 
	C764.345642,753.015869 764.432251,761.512756 764.289490,770.005859 
	C764.253967,772.118286 765.537659,775.219604 762.485535,776.052002 
	C759.282104,776.925659 755.843140,776.954346 753.459656,773.670471 
	C750.035889,768.953247 746.575806,764.260986 743.047302,759.622009 
	C741.786682,757.964783 740.903076,755.859253 738.002686,754.906067 
	C736.633179,760.443054 737.303467,765.898315 737.366882,771.247192 
	C737.413330,775.158020 736.044067,776.436646 732.148560,776.486816 
	C727.884827,776.541809 726.702637,774.872314 726.793396,770.858887 
	C727.034302,760.202637 726.914368,749.538818 727.033569,738.879028 
	C727.057800,736.713318 725.989685,733.720764 729.158997,732.974243 
	C732.225525,732.251953 735.359863,732.163452 737.675049,735.352661 
	C741.783020,741.011536 746.121460,746.503967 750.404053,752.034546 
	C751.186279,753.044678 751.698120,754.408386 753.916992,754.798645 
	C755.400146,749.151184 754.612122,743.373779 754.542603,737.720337 
	C754.492676,733.667297 756.069824,732.487732 759.862366,732.635315 
	C762.963135,732.755859 764.545837,733.741516 764.345703,737.031494 
	C764.214478,739.188660 764.332520,741.360901 764.341309,744.023438 
z"/>
<path fill="#000000" opacity="1.000000" stroke="none" 
	d="
M803.520935,772.705811 
	C794.163940,778.562317 784.133057,775.823669 774.479675,776.212769 
	C772.305969,776.300354 771.918884,774.430176 771.913025,772.657288 
	C771.873291,760.691284 771.856262,748.725281 771.828064,736.759277 
	C771.822693,734.501953 772.501099,732.729126 775.133972,732.760559 
	C781.597534,732.837708 788.082214,732.074219 794.520386,733.254211 
	C802.975891,734.804077 808.864746,739.498840 811.102173,747.847107 
	C813.658813,757.386353 811.954590,765.961304 803.520935,772.705811 
M782.282043,753.529297 
	C782.293213,756.529114 782.287537,759.529053 782.322144,762.528625 
	C782.341492,764.209412 782.360657,765.814880 784.393616,766.606506 
	C789.463745,768.580811 796.958862,766.161987 799.938354,761.467468 
	C803.050232,756.564331 802.193970,749.199036 798.058472,745.336243 
	C794.075256,741.615662 788.996643,741.288269 784.437561,742.695374 
	C780.308960,743.969482 782.990234,748.534363 782.290039,751.561157 
	C782.216858,751.877625 782.279907,752.225525 782.282043,753.529297 
z"/>
<path fill="#000000" opacity="1.000000" stroke="none" 
	d="
M573.613525,750.001282 
	C573.631348,745.172791 573.657776,740.844055 573.664734,736.515259 
	C573.667969,734.491333 574.114685,732.750610 576.595703,732.794861 
	C583.223938,732.913086 589.850952,732.082336 596.479797,733.458069 
	C608.950989,736.046326 611.396973,751.113647 604.705322,758.804077 
	C601.634155,762.333557 601.616760,764.827637 604.272827,768.272278 
	C605.937988,770.431824 607.677063,772.726440 608.220093,775.592041 
	C599.793823,777.625977 598.380493,777.078857 594.557617,770.481262 
	C593.973450,769.473083 593.371155,768.475403 592.780823,767.470764 
	C591.360718,765.054138 589.351135,763.881409 586.516174,764.598633 
	C583.603271,765.335693 583.446899,767.654602 583.318665,770.093689 
	C583.173950,772.846558 584.420898,776.316895 579.409485,776.452271 
	C575.286926,776.563660 573.295044,775.639099 573.537659,770.975098 
	C573.891846,764.167542 573.619385,757.327271 573.613525,750.001282 
M597.433105,750.771729 
	C597.792419,744.237854 595.913574,742.288025 589.148926,742.174438 
	C583.575684,742.080872 583.284912,742.454529 583.341492,749.632263 
	C583.346680,750.294250 583.369263,750.956848 583.347656,751.618042 
	C583.259583,754.317505 584.644043,755.544739 587.257019,755.623657 
	C591.188843,755.742371 594.944458,755.476135 597.433105,750.771729 
z"/>
<path fill="#000000" opacity="1.000000" stroke="none" 
	d="
M621.089722,776.383545 
	C613.762024,776.283447 613.770569,776.283447 613.786194,769.359009 
	C613.809570,759.037231 613.987000,748.711792 613.756165,738.395508 
	C613.657715,733.992981 615.277771,732.466492 619.568787,732.608765 
	C626.386841,732.834839 633.219116,732.745178 640.043030,732.640259 
	C643.277954,732.590454 644.406067,733.987305 644.414917,737.146118 
	C644.423828,740.346375 643.634521,742.291199 640.000549,742.180481 
	C636.174988,742.063904 632.342773,742.181702 628.514893,742.115173 
	C625.613342,742.064697 624.220459,743.320129 624.271240,746.299316 
	C624.323364,749.356873 626.264282,749.735352 628.647034,749.720886 
	C631.809937,749.701599 634.974426,749.790771 638.135864,749.722534 
	C641.142578,749.657776 642.212219,751.118164 642.247009,754.012573 
	C642.282959,757.001343 641.398987,758.904114 638.109497,758.869263 
	C634.956726,758.835876 631.800293,758.601868 628.653381,758.702393 
	C625.725891,758.795898 624.170959,760.303162 624.189636,763.478699 
	C624.208923,766.759460 626.321045,767.350830 628.787292,767.441528 
	C633.099304,767.600098 637.418823,767.646606 641.733826,767.602966 
	C645.197327,767.567993 645.210999,769.834167 645.252441,772.316223 
	C645.295898,774.915466 644.441833,776.410461 641.555664,776.383301 
	C634.897034,776.320679 628.237366,776.376099 621.089722,776.383545 
z"/>
<path fill="#000000" opacity="1.000000" stroke="none" 
	d="
M416.113037,767.190674 
	C420.243500,756.990112 424.288055,747.163269 428.124542,737.255798 
	C429.257812,734.329224 430.571014,732.498291 434.133728,732.592957 
	C437.513611,732.682739 440.113037,732.912659 441.580200,736.723938 
	C446.051941,748.340271 450.856842,759.828247 455.513336,771.373718 
	C456.063507,772.737854 456.739105,774.111145 456.213531,775.656799 
	C448.531830,777.550903 447.799835,777.307495 444.596741,770.983398 
	C443.406769,768.633972 441.649902,767.469727 439.089539,767.441162 
	C435.933807,767.405945 432.777496,767.430542 429.621643,767.402954 
	C427.304291,767.382751 426.080719,768.632385 425.165466,770.671997 
	C422.287231,777.085876 421.360748,777.452698 413.388367,775.791443 
	C413.066315,772.713684 415.032867,770.263184 416.113037,767.190674 
M435.278564,748.796814 
	C431.600098,750.488281 430.257751,754.293396 431.315796,757.163025 
	C432.287323,759.798035 436.081757,758.751587 439.026886,757.981812 
	C438.630981,754.599670 437.800964,751.667847 435.278564,748.796814 
z"/>
<path fill="#000000" opacity="1.000000" stroke="none" 
	d="
M266.440613,766.280518 
	C268.476593,763.622375 267.745636,760.858948 267.719238,758.268677 
	C267.684326,754.844482 269.033447,753.534851 272.481323,753.582214 
	C275.694305,753.626526 277.597382,754.384888 277.344330,758.053223 
	C277.172882,760.538452 277.335236,763.046265 277.337341,765.544006 
	C277.343170,772.535461 276.439117,773.791687 269.904083,775.901733 
	C260.250336,779.018738 250.384918,776.678345 244.748444,769.934021 
	C238.846375,762.871765 237.778229,751.301941 242.276505,743.158569 
	C248.398499,732.075745 263.264465,728.566223 273.850037,735.809143 
	C275.908905,737.217896 279.091583,738.645874 276.517548,741.991699 
	C274.492218,744.624268 272.485443,747.082764 268.387238,744.134827 
	C263.990570,740.972168 258.875031,741.117554 254.330246,744.237976 
	C250.235062,747.049561 248.860367,751.467468 249.591125,756.116638 
	C250.398514,761.253235 252.825943,765.585449 258.421173,767.141846 
	C261.075195,767.880127 263.664062,768.034546 266.440613,766.280518 
z"/>
<path fill="#000000" opacity="1.000000" stroke="none" 
	d="
M287.989471,754.089966 
	C290.453888,747.866272 292.838165,742.023071 295.045776,736.113831 
	C296.110901,733.262878 298.103516,732.456238 300.884613,732.649231 
	C303.459473,732.827881 306.199829,732.129578 307.555420,735.526245 
	C312.662720,748.323608 317.920441,761.060974 323.096985,773.830872 
	C323.270691,774.259338 323.178497,774.795593 323.208740,775.258362 
	C316.681427,777.823364 314.179962,776.964722 311.231323,770.841064 
	C310.075165,768.440002 308.488617,767.249023 305.815979,767.361755 
	C303.660217,767.452637 301.476990,767.550293 299.341217,767.318970 
	C294.977997,766.846191 292.239716,768.020935 290.927155,772.766602 
	C289.272186,778.750122 284.347015,775.841736 279.637878,776.107300 
	C281.701660,768.204346 285.245911,761.487061 287.989471,754.089966 
M305.518738,755.805847 
	C304.485168,753.115295 304.032776,750.107239 301.537170,747.860901 
	C298.677765,750.930969 297.761139,754.324158 297.051666,758.303833 
	C300.239746,757.994812 303.503632,760.625305 305.518738,755.805847 
z"/>
<path fill="#000000" opacity="1.000000" stroke="none" 
	d="
M463.340118,755.649902 
	C459.476746,748.140076 454.928711,741.391724 451.822174,733.843811 
	C459.410828,731.257080 461.639740,732.136047 465.197968,738.343567 
	C467.151306,741.751343 468.237335,745.735413 471.724762,748.666748 
	C475.211426,745.966431 476.590607,741.975281 478.549805,738.455322 
	C482.084076,732.105652 482.876526,731.679504 490.515747,733.330078 
	C491.427032,734.736877 490.518433,735.873962 489.900360,737.000793 
	C487.419586,741.523743 485.140991,746.183777 482.324646,750.490356 
	C478.106720,756.940063 475.225616,763.618103 476.363708,771.532959 
	C476.967133,775.729492 474.582581,776.346680 471.010132,776.468628 
	C466.864075,776.610168 466.415771,774.615601 466.573669,771.265625 
	C466.823853,765.958008 467.183167,760.541138 463.340118,755.649902 
z"/>
<path fill="#000000" opacity="1.000000" stroke="none" 
	d="
M326.691742,760.995972 
	C326.689789,752.839478 326.818604,745.179321 326.632904,737.526794 
	C326.542114,733.785095 328.076111,732.601685 331.655914,732.597717 
	C335.272278,732.593750 337.279510,733.429504 337.166870,737.588501 
	C336.955078,745.406311 337.315491,753.242493 337.005402,761.053772 
	C336.819397,765.738953 338.713318,767.359924 343.127106,767.074097 
	C346.111176,766.880920 349.116699,767.001221 352.112518,767.011780 
	C355.773560,767.024658 356.313599,769.328186 356.296234,772.374817 
	C356.278748,775.433960 354.889893,776.450195 352.006958,776.411499 
	C344.850586,776.315369 337.691895,776.323853 330.534882,776.383240 
	C327.784821,776.406067 326.623474,775.214111 326.689331,772.480957 
	C326.777496,768.821167 326.699585,765.157471 326.691742,760.995972 
z"/>
<path fill="#000000" opacity="1.000000" stroke="none" 
	d="
M564.615967,775.555969 
	C562.652954,776.060852 561.010742,776.210327 559.369934,776.373169 
	C556.289734,776.678955 555.432495,775.243958 555.463074,772.258667 
	C555.583740,760.465698 555.534607,748.669373 555.390076,736.876343 
	C555.353699,733.907593 556.371094,732.402466 559.376343,732.691467 
	C561.753784,732.920044 565.293884,731.485901 565.273071,735.874390 
	C565.211060,748.985168 565.838562,762.103149 564.615967,775.555969 
z"/>
<path fill="#000000" opacity="1.000000" stroke="none" 
	d="
M516.107544,745.575806 
	C523.568909,743.653076 528.416504,745.514343 530.641785,750.848083 
	C532.740356,755.877991 531.097168,761.846252 526.861938,764.577759 
	C521.980591,767.725769 515.528809,766.501404 512.304871,761.815186 
	C508.813934,756.740967 510.264984,749.944397 516.107544,745.575806 
z"/>
</svg>